<?xml version="1.0" encoding="UTF-8" standalone="no"?>
<!DOCTYPE svg PUBLIC "-//W3C//DTD SVG 1.1//EN" "http://www.w3.org/Graphics/SVG/1.1/DTD/svg11.dtd">
<svg width="100%" height="100%" viewBox="0 0 1536 800" version="1.1" xmlns="http://www.w3.org/2000/svg" xmlns:xlink="http://www.w3.org/1999/xlink" xml:space="preserve" xmlns:serif="http://www.serif.com/" style="fill-rule:evenodd;clip-rule:evenodd;stroke-linejoin:round;stroke-miterlimit:2;">
    <g id="Background" transform="matrix(1.787038,0,0,1.787038,4.402216,46.792868)">
        <path d="M27.828,221.997C32.098,217.153 53.733,200.194 92.424,187.314C133.583,173.613 178.472,166.607 191.557,165.92C192.092,165.892 194.171,165.022 194.542,164.998C195.826,164.915 209.488,164.034 210.573,163.683C214.987,162.256 218.824,163.246 220.572,162.681C224.964,161.262 228.83,162.244 230.572,161.682C232.62,161.02 248.504,159.972 249.5,159.964C259.722,159.888 259.617,158.969 260.501,158.965C275.553,158.903 275.469,158.061 290.508,157.962C295.636,157.928 294.589,155.858 298.778,150.74C302.159,146.611 302.744,147.284 306.219,143.259C308.554,140.555 308.181,140.312 310.739,137.739C319.526,128.899 321.343,125.153 323.739,122.738C342.735,103.584 413.001,17.114 420.335,5.401C420.416,5.27 426.923,-1.937 425.922,9.557C425.638,12.823 396.281,59.501 392.334,66.399C389.642,71.106 339.898,154.778 340.804,156.373C341.651,157.865 378.134,156.621 381.556,157.078C384.355,157.452 384.228,158.087 403.508,157.963C411.971,157.908 400.207,141.553 426.781,107.741C429.71,104.014 444.523,95.314 448.542,94.999C455.069,94.488 454.993,94.222 455.547,94.323C462.923,95.66 462.959,95.113 463.574,95.312C475.127,99.049 481.211,104.51 472.669,119.603C463.816,135.249 428.652,154.022 424.371,156.307C417.289,160.088 437.777,158.739 439.575,159.311C444.586,160.905 451.584,159.412 452.554,160.447C457.404,165.62 424.527,161.379 420.611,163.708C416.921,165.903 419.832,188.131 420.437,188.578C423.347,190.728 457.537,151.636 486.576,161.313C497.903,165.088 494.438,174.747 499.546,173.92C509.67,172.281 509.726,172.952 510.571,172.68C513.681,171.676 554.504,169.703 554.572,169.681C559.936,167.952 573.591,169.64 576.571,168.68C582.202,166.867 621.199,168.765 624.571,167.679C630.169,165.875 651.872,167.768 654.575,166.65C655.778,166.152 677.651,139.577 679.779,136.74C684.411,130.565 719.459,87.272 720.219,86.259C727.742,76.23 728.456,76.961 736.218,67.259C737.996,65.038 756.154,42.342 758.738,39.738C766.619,31.794 766.06,31.422 766.739,30.739C774.592,22.834 775.61,19.429 779.537,18.996C786.726,18.204 776.338,31.394 776.335,31.399C774.627,34.174 770.211,40.793 769.67,41.604C746.298,76.634 747.484,77.396 745.22,80.272C737.257,90.387 702.793,155.69 699.746,166.57C698.682,170.373 714.325,168.589 716.574,169.313C721.795,170.992 729.741,169.402 732.574,170.312C737.621,171.935 745.004,170.488 747.574,171.313C750.834,172.359 794.454,175.245 810.443,177.92C821.588,179.784 821.644,179.014 822.574,179.314C825.022,180.104 838.551,181.976 839.593,182.274C855.964,186.951 823.004,183.872 822.426,183.685C817.565,182.112 817.272,184.244 812.426,182.687C807.973,181.256 805.253,182.276 803.426,181.687C800.129,180.625 779.598,179.741 779.428,179.689C776.923,178.913 776.873,180.429 774.428,179.69C768.653,177.944 746.182,177.93 745.426,177.686C740.896,176.229 711.421,176.026 708.492,175.559C707.618,175.42 701.569,174.456 697.439,175.08C696.907,175.16 695.862,175.318 693.352,180.424C688.645,189.998 676.384,229.07 676.082,231.443C674.662,242.597 674.986,242.644 674.688,243.574C673.282,247.95 674.551,247.946 675.08,252.56C675.107,252.801 680.002,259.885 675.579,261.655C669.052,264.267 665.464,248.178 667.313,242.426C668.191,239.694 669.049,232.25 669.315,231.426C669.725,230.159 673.377,218.859 674.004,215.45C675.61,206.722 676.371,206.95 688.312,176.449C688.431,176.144 688.897,174.953 684.5,174.964C681.388,174.972 681.377,175.635 678.426,174.687C674.447,173.409 657.816,173.784 656.739,174.785C648.332,182.601 632.646,206.66 593.742,237.782C593.342,238.102 593.364,238.084 588.741,241.782C571.142,255.862 557.6,266.051 524.425,279.321C516.684,282.418 496.774,291.516 456.444,289.921C455.915,289.9 453.804,289.022 453.458,289C445.842,288.505 446.017,287.709 438.444,286.92C436.628,286.731 420.529,280.626 417.397,278.669C395.109,264.737 392.821,253.117 391.313,248.577C389.175,242.146 390.113,240.78 389.679,239.429C387.693,233.248 393.784,220.061 394.504,218.501C396.552,214.066 389.281,220.659 387.602,221.668C366.349,234.447 361.906,232.092 358.444,231.921C354.351,231.719 336.154,220.337 363.738,192.738C389.74,166.721 401.97,166.225 401.708,162.416C401.68,161.999 401.498,161.903 396.495,161.97C357.096,162.5 340.911,160.836 336.395,163.337C335.274,163.957 319.199,195.532 315.3,203.398C315.273,203.451 304.334,228.737 303.997,230.55C303.861,231.283 303.174,234.977 301.686,239.574C299.381,246.695 303.905,246.152 303.904,249.5C303.901,255.167 295.413,252.435 294.998,246.459C294.316,236.645 295.199,236.714 298.312,227.423C309.024,195.454 317.397,186.664 323.676,172.574C327.249,164.558 328.022,165.089 328.305,164.392C328.455,164.022 328.686,162.87 323.5,163.034C298.342,163.829 298.397,163.647 296.406,164.089C295.079,164.383 259.241,203.663 257.606,204.665C255.258,206.105 230.311,230.311 229.259,231.219C226.028,234.009 190.487,261.635 188.603,262.668C166.526,274.766 167.692,278.323 133.576,289.686C119.976,294.215 104.694,296.022 103.499,296.034C94.11,296.129 94.248,297.045 93.451,296.923C90.375,296.451 90.536,295.976 87.5,295.966C85.5,295.959 83.5,295.974 81.499,295.967C76.898,295.951 77.028,295.654 72.557,295.085C70.999,294.887 62.968,293.864 53.423,290.687C13.588,277.426 13.932,257.196 13.683,256.427C9.265,242.786 23.509,226.04 27.828,221.997L84.457,289.997C87.45,291.032 93.973,291.746 98.426,290.313C100.262,289.722 102.965,290.751 107.426,289.314C111.734,287.927 161.937,290.531 249.737,202.737C261.28,191.195 261.038,191.055 272.462,179.462C286.032,165.69 286.018,163.903 284.444,163.843C283.086,163.79 283.235,164.96 267.5,164.966C259.899,164.968 260.054,165.938 252.5,165.966C228.218,166.055 164.309,174.5 157.573,176.684C156.75,176.951 145.446,178.438 141.574,179.687C139.535,180.344 131.436,181.833 130.55,181.996C127.609,182.537 92.918,192.727 86.425,195.322C37.212,214.986 24.285,232.212 20.315,244.426C11.448,271.707 56.68,289.68 84.457,289.997L27.828,221.997L441.543,228.003C422.643,223.033 422.908,219.193 416.78,212.259C413.976,209.087 414.897,205.105 410.602,207.671C401.142,213.323 395.433,230.874 395,236.542C394.686,240.648 395.758,240.455 396.081,244.558C396.37,248.218 403.205,260.394 406.742,263.22C410.876,266.522 410.378,266.951 410.742,267.219C411.348,267.664 417.373,272.099 418.397,272.668C437.001,283.009 453.369,283.9 456.55,284.073C467.401,284.663 467.354,285.691 474.506,284.543C481.345,283.444 484.953,284.204 486.572,283.682C491.363,282.137 491.544,283.334 493.571,282.68C496.467,281.746 504.943,280.559 516.575,276.684C583.591,254.36 641.178,182.236 646.76,176.745C646.93,176.578 649.693,173.859 647.444,173.842C643.282,173.811 598.036,173.475 595.428,174.318C589.817,176.131 561.756,174.246 558.428,175.319C554.825,176.482 552.558,176.034 548.5,176.035C537.901,176.038 538.026,176.912 527.5,176.967C517.943,177.017 518.063,177.697 508.443,178.082C507.403,178.124 506.746,179.006 504.495,179.031C502.462,179.055 500.425,178.951 498.396,179.081C495.814,179.247 498.487,181.182 493.688,195.577C488.744,210.403 472.902,221.501 472.603,221.668C457.946,229.84 444.449,227.994 441.543,228.003L27.828,221.997L473.459,182.002C463.128,182.216 457.044,185.243 447.55,186.996C439.011,188.574 439.457,189.712 428.397,195.299C427.149,195.929 422.088,196.339 425.317,203.577C426.47,206.16 435.05,225.387 455.558,221.918C469.812,219.506 481.177,206.336 483.665,201.601C490.053,189.441 488.732,188.981 490.315,184.426C492.557,177.972 487.641,180.904 478.5,180.967C478.458,180.967 477.511,180.598 473.459,182.002L27.828,221.997L405.999,177.459C405.985,168.949 406.143,168.945 405.887,168.255C405.699,167.75 405.19,166.951 399.603,170.668C373.322,188.151 374.949,190.258 372.604,191.668C369.868,193.313 370.545,193.959 368.26,196.262C366.877,197.655 355.978,208.641 355.969,217.505C355.944,240.597 392.045,210.373 397.602,206.666C411.204,197.593 409.729,195.655 408.681,192.428C406.709,186.356 407.424,181.578 405.999,177.459L27.828,221.997L389.947,56.992C394.7,47.568 385.353,59.629 384.669,60.648C372.427,78.877 302.351,155.731 302.615,156.462C303.004,157.537 330.853,156.952 331.577,156.646C332.474,156.267 339.513,143.919 346.703,129.604C352.992,117.085 356.198,114.481 360.701,105.603C364.896,97.33 372.529,85.871 374.702,81.603C379.596,71.991 385.335,64.667 389.947,56.992L27.828,221.997L742.154,69.041C739.419,72.546 716.791,101.55 707.46,112.461C706.348,113.762 706.53,113.868 694.219,129.259C665.538,165.117 662.888,166.24 665.585,167.321C666.056,167.509 690.442,168.994 692.216,167.217C693.585,165.847 699.756,149.95 700.349,148.423C701.593,145.221 702.485,145.725 720.297,110.396C722.817,105.398 723.52,105.757 729.297,94.397C732.654,87.796 755.306,53.987 742.154,69.041L27.828,221.997L455.835,129.995C458.536,126.46 470.934,119.866 469.92,106.44C469.648,102.834 461.17,97.994 451.428,101.324C426.398,109.879 419.097,150.569 420.417,151.6C422.446,153.184 452.6,132.786 455.835,129.995L27.828,221.997L468.542,176.998C478.636,176.358 478.522,175.898 488.606,174.918C490.751,174.709 489.942,170.767 488.221,168.739C483.208,162.83 474.641,165.893 473.439,166.077C470.102,166.588 457.419,173.243 456.731,173.783C454.359,175.642 441.343,183.217 450.474,181.087C467.085,177.211 467.142,177.486 468.542,176.998L27.828,221.997Z" style="fill:rgb(0,18,25);"/>
        <path d="M91.004,352.49C91.081,382.534 91.41,383.791 89.605,383.92C88.995,383.964 82.2,384.45 82.081,382.604C81.944,380.466 82.149,336.251 81.965,329.505C81.869,326.011 87.869,327.11 93.494,326.965C97.366,326.866 96.447,332.475 99.685,342.426C100.171,343.921 99.25,344.128 104.679,361.429C104.684,361.446 105.312,371.484 107.317,368.404C108.203,367.043 105.839,366.426 111.68,348.572C114.002,341.476 114.385,327.071 119.489,327.034C123.225,327.007 130.791,326.389 130.919,328.396C131.052,330.486 130.854,374.567 131.036,381.494C131.135,385.297 122.213,384.688 122.08,382.605C121.121,367.57 122.3,347.544 122.479,344.501C122.735,340.15 120.827,341.363 120.674,341.59C120.136,342.392 121.77,342.713 118.316,353.427C117.577,355.72 115.234,368.445 111.319,380.427C109.469,386.088 107.876,386.078 102.422,383.648C100.706,382.883 101.773,382.179 99.313,374.574C96.135,364.748 97.463,364.468 94.32,354.571C93.349,351.514 92.67,340.627 90.675,343.591C90.278,344.183 90.436,344.239 91.004,352.49Z" style="fill:rgb(0,18,25);"/>
        <path d="M370.864,354.958C370.734,356.687 371.058,356.561 372.256,357.738C378.445,363.815 374.671,372.718 377.319,379.574C379.577,385.42 375.692,384.383 369.397,383.917C366.84,383.728 367.145,374.977 366.314,372.574C364.555,367.489 370.438,358.898 353.396,360.085C350.738,360.27 352.252,376.503 352.002,381.457C351.85,384.481 343.754,384.738 342.482,383.518C341.484,382.561 342.342,343.813 341.965,329.506C341.873,326.025 347.158,327.066 358.5,327.033C363.027,327.02 362.914,327.223 367.439,327.922C378.59,329.646 380.899,349.69 370.864,354.958L351.965,341.5C351.967,342.613 351.251,351.758 353.395,351.919C368.177,353.023 367.205,346.635 367.001,340.543C366.778,333.864 352.33,333.626 352.082,336.396C352.046,336.803 352.073,336.774 351.965,341.5L370.864,354.958Z" style="fill:rgb(0,18,25);"/>
        <path d="M805.084,355.02C803.772,357.561 805.89,357.102 807.295,359.61C811.281,366.724 808.495,373.427 811.331,381.565C812.772,385.7 804.185,384.12 803.543,384.001C797.836,382.951 802.521,364.514 797.389,361.704C790.934,358.17 785.186,360.101 785.082,362.439C784.726,370.406 786.112,383.742 783.604,383.919C778.2,384.299 775.316,385.996 775.92,380.549C776.069,379.212 775.826,340.868 776.034,331.504C776.086,329.169 774.158,327.058 778.492,327.034C799.814,326.921 811.293,324.479 810.002,347.458C809.815,350.786 805.622,354.539 805.084,355.02L784.965,345.5C785.435,350.97 784.722,351.813 786.396,351.92C795.84,352.522 798.168,352.369 800.684,344.573C802.19,339.907 797.787,333.313 786.552,334.983C784.455,335.294 785.046,341.989 784.965,345.5L805.084,355.02Z" style="fill:rgb(0,18,25);"/>
        <path d="M720.99,360.512C721.155,330.943 720.918,330.96 721.081,328.396C721.215,326.309 730.135,325.701 730.034,329.506C729.84,336.784 730.073,381.911 729.919,382.604C729.367,385.073 718.868,383.871 718.48,383.524C717.52,382.666 702.845,345.613 702.614,344.428C701.885,340.686 700.541,343.327 700.549,343.508C700.677,346.633 701.672,370.794 700.92,382.605C700.802,384.452 694.005,383.963 693.396,383.919C691.904,383.812 691.96,381.72 691.966,381.495C692.149,374.657 691.947,330.492 692.081,328.396C692.198,326.557 698.668,326.904 702.562,327.077C705.115,327.191 706.621,333.944 707.32,335.576C719.371,363.702 718.553,363.994 719.683,366.398C721.533,370.331 721.016,360.993 720.99,360.512Z" style="fill:rgb(0,18,25);"/>
        <path d="M408.459,326.998C412.022,328.238 418.358,328.191 421.685,338.426C422.647,341.384 422.391,352.743 417.259,357.219C415.323,358.908 411.388,359.776 408.574,360.685C405.718,361.608 396.066,359.097 396.035,363.487C395.945,376.172 396.755,383.762 394.605,383.92C393.917,383.971 386.506,384.514 386.08,382.605C385.981,382.162 386.059,332.82 386.034,330.5C385.981,325.423 388.363,327.052 393.5,327.033C399.547,327.009 399.488,327.057 405.5,327.034C406.487,327.03 407.473,327.002 408.459,326.998L395.965,347.5C396.429,351.974 395.729,352.811 397.396,352.918C400.51,353.118 407.134,353.801 410.219,350.258C414.425,345.43 410.804,335.273 406.561,335.082C402.731,334.909 396.2,334.551 396.082,336.396C396.025,337.282 396.108,337.171 395.965,347.5L408.459,326.998Z" style="fill:rgb(0,18,25);"/>
        <path d="M331.005,365.55C332.091,372.583 337.568,383.754 334.642,383.947C327.239,384.435 325.203,384.88 324.077,377.561C322.769,369.06 320.286,369.042 319.513,369.036C308.479,368.956 305.992,367.98 304.686,371.577C301.986,379.016 301.922,383.753 299.593,383.914C293.375,384.346 290.242,384.367 292.316,378.426C298.368,361.091 306.022,327.233 308.396,327.08C319.181,326.387 319.601,327.481 319.934,328.347C320.715,330.379 319.909,330.607 327.686,354.426C327.974,355.308 329.704,360.605 331.005,365.55L317.006,350.549C315.749,345.786 315.812,345.83 315.68,345.428C313.39,338.41 314.663,338.129 314.316,337.597C312.981,335.55 312.068,340.315 311.994,340.657C308.018,358.985 307.065,358.944 307.846,360.352C308.319,361.203 311.583,361.055 317.559,360.981C321.344,360.935 318.007,357.1 317.006,350.549L331.005,365.55Z" style="fill:rgb(0,18,25);"/>
        <path d="M668.457,326.996C672.402,328.75 670.74,330.177 676.686,348.426C677.833,351.943 677.517,351.932 678.687,355.423C679.43,357.64 687.641,382.136 686.582,383.567C686.198,384.086 676.731,385.38 676.078,381.566C673.933,369.058 671.609,369.042 670.513,369.035C657.425,368.949 655.808,368.066 655.004,372.45C654.2,376.832 652.361,381.616 652.064,382.39C651.029,385.082 642.239,384.576 642.085,382.545C641.982,381.186 649.034,359.558 649.681,357.572C654.208,343.687 652.941,343.371 657.682,329.575C659.759,323.529 662.036,327.057 668.457,326.996L668.995,355.451C668.177,350.143 665.566,343.434 665.397,342.543C665.349,342.287 663.356,331.79 662.841,340.538C662.443,347.295 657.805,358.467 658.85,360.35C659.311,361.181 662.329,361.064 668.56,360.981C671.123,360.947 670.26,359.086 668.995,355.451L668.457,326.996Z" style="fill:rgb(0,18,25);"/>
        <path d="M76.002,380.543C75.034,386.494 72.915,386.091 67.42,383.652C64.709,382.449 64.552,369.257 60.561,369.079C45.723,368.419 45.378,369.184 45.082,370.391C42.423,381.232 41.615,383.814 39.561,383.92C34.03,384.208 30.928,384.86 32.685,379.576C33.555,376.958 32.804,376.743 42.681,346.573C45.45,338.117 44.78,337.99 47.683,329.576C49.246,325.046 50.778,327.081 55.5,327.034C62.068,326.967 60.437,329.935 65.314,344.576C69.454,357.004 68.114,357.388 72.683,368.425C73.042,369.294 75.747,379.571 76.002,380.543L51.002,349.457C47.251,360.238 48.468,360.865 49.392,360.922C59.713,361.557 59.844,360.288 59.74,359.458C59.496,357.509 55.702,344.834 55.324,343.571C54.467,340.709 56.245,338.532 53.351,339.289C52.035,339.633 51.089,348.627 51.002,349.457L76.002,380.543Z" style="fill:rgb(0,18,25);"/>
        <path d="M852.003,371.459C849.425,378.882 849.153,381.272 838.574,384.686C832.395,386.679 820.41,382.551 818.333,378.602C817.908,377.794 815.384,372.996 815.628,367.514C815.723,365.383 824.561,365.175 824.92,367.395C825.861,373.216 824.961,374.39 830.426,376.647C838.011,379.779 848.857,368.477 837.397,361.668C831.345,358.072 817.441,354.71 817.079,345.555C816.94,342.041 815.502,334.9 822.739,328.78C825.522,326.426 835.432,324.214 842.399,327.703C848.829,330.923 848.495,331.595 850.688,338.426C852.429,343.85 849.179,342.882 843.504,343.037C839.116,343.157 842.906,337.681 838.601,335.334C827.397,329.226 819.477,344.678 834.424,349.684C854.254,356.326 851.928,365.01 852.003,371.459Z" style="fill:rgb(0,18,25);"/>
        <path d="M459.003,356.457C457.383,360.102 453.326,358.95 444.5,358.966C440.767,358.974 439.063,357.725 439.037,361.487C438.998,367.026 438.404,374.792 440.396,374.919C447.907,375.398 460.532,373.279 460.921,377.439C461.597,384.673 458.707,383.964 451.5,383.965C430.801,383.968 429.057,384.694 429.035,381.512C429.007,377.276 428.696,330.491 428.982,328.551C429.378,325.871 439.852,327.448 457.495,326.962C461.131,326.862 461.514,334.938 457.513,334.965C444.429,335.054 439.058,333.835 439.035,337.487C438.993,343.909 437.929,349.941 441.487,349.965C448.67,350.012 458.623,349.052 458.927,352.43C458.956,352.751 458.932,352.728 459.003,356.457Z" style="fill:rgb(0,18,25);"/>
        <path d="M633.459,359.002C622.28,358.969 617.058,357.915 617.035,361.487C616.999,367.082 616.412,374.792 618.395,374.919C633.773,375.902 640.884,370.668 638.911,381.559C638.19,385.54 636.207,383.547 610.504,384.032C606.257,384.112 607.035,381.79 607.035,350.5C607.035,328.76 606.635,327.192 608.395,327.08C610.228,326.963 628.943,327.144 635.496,326.963C639.324,326.858 638.6,334.793 636.604,334.92C631.208,335.264 617.242,333.899 617.082,336.395C616.24,349.549 617.31,349.848 618.395,349.917C624.847,350.331 636.63,348.392 636.92,352.439C637.228,356.737 637.492,357.53 633.459,359.002Z" style="fill:rgb(0,18,25);"/>
        <path d="M763.464,349.995C766.567,350.473 767.581,350.386 767.08,353.458C766.776,355.326 768.795,358.934 764.511,358.965C753.736,359.041 748.06,357.818 748.035,361.487C747.998,367.013 747.407,374.79 749.395,374.917C756.903,375.399 769.531,373.278 769.921,377.439C770.599,384.676 767.705,383.964 760.5,383.965C739.8,383.969 738.055,384.686 738.034,381.512C738.006,377.275 737.688,329.702 737.982,328.551C738.674,325.845 748.337,327.454 766.495,326.964C766.72,326.958 768.794,326.902 768.919,328.396C768.964,328.927 769.454,334.802 767.605,334.92C762.216,335.263 748.243,333.898 748.083,336.395C747.248,349.439 748.335,349.682 749.396,349.919C750.494,350.164 750.441,349.939 763.464,349.995Z" style="fill:rgb(0,18,25);"/>
        <path d="M267.541,325.998C272.805,326.058 280.448,324.877 285.335,333.6C287.112,336.773 286.486,336.959 287.687,340.426C289.613,345.986 286.27,345.225 280.439,344.919C276.802,344.729 278.446,336.479 273.573,334.355C267.964,331.91 263.386,337.064 262.785,337.74C260.772,340.007 259.638,357.265 260.084,360.556C260.636,364.631 260.869,364.524 261.079,368.557C261.468,376.03 275.802,384.01 279.001,366.444C279.852,361.774 281.828,363.94 286.533,363.694C288.871,363.571 289.895,374.189 282.259,381.219C280.17,383.144 272.6,385.047 271.496,385.033C249.16,384.739 250.965,369.519 251.034,350.5C251.115,328.305 259.526,328.766 267.541,325.998Z" style="fill:rgb(0,18,25);"/>
        <path d="M541.541,325.998C551.081,326.107 561.125,326.494 562.078,341.551C562.378,346.296 560.176,345.202 555.439,344.92C551.561,344.689 553.755,333.802 545.496,333.967C539.236,334.093 538.913,334.719 536.319,340.426C535.012,343.3 536.661,343.555 535.686,346.574C533.564,353.14 535.891,354.622 536.038,367.508C536.106,373.502 542.291,377.684 545.571,376.685C553.475,374.277 552.458,372.475 553.447,366.492C554.115,362.45 562.006,363.948 562.518,364.482C564.201,366.234 563.111,366.554 561.998,372.55C559.515,385.914 539.05,390.082 529.781,378.27C524.574,371.634 525.198,350.272 527.004,340.45C529.337,327.764 536.73,327.66 541.541,325.998Z" style="fill:rgb(0,18,25);"/>
        <path d="M205.989,349.242C206.324,349.483 206.322,350.042 206.656,350.282C209.43,352.274 215.915,327.265 218.396,327.08C227.874,326.376 228.025,327.843 227.743,328.545C226.888,330.675 226.362,330.414 215.684,354.577C212.503,361.776 212.038,361.694 212.035,369.5C212.033,375.859 212.674,383.764 210.604,383.918C201.727,384.578 202.091,382.782 202.08,382.605C201.191,368.623 204.869,367.898 198.703,355.396C197.622,353.205 185.514,328.657 186.417,327.433C186.645,327.123 196.004,325.935 196.934,328.348C199.038,333.809 204.96,346.809 205.686,348.402C205.809,348.673 205.866,348.971 205.989,349.242Z" style="fill:rgb(0,18,25);"/>
        <path d="M25.5,326.965C27.869,326.971 32.727,326.535 32.919,328.396C33.953,338.409 28.592,334.953 18.5,334.967C13.381,334.974 13.072,333.956 11.484,335.484C11.121,335.834 9.904,350.755 12.395,350.915C17.717,351.257 30.682,349.904 30.92,352.395C31.512,358.578 31.218,358.692 30.734,358.88C28.919,359.584 11.72,357.546 11.085,360.397C10.473,363.146 12.436,383.717 9.604,383.919C8.995,383.963 2.197,384.448 2.08,382.605C1.999,381.335 2.044,331.623 2.034,330.5C1.988,325.41 4.376,327.052 9.5,327.033C17.548,327.002 17.444,327.102 25.5,326.965Z" style="fill:rgb(0,18,25);"/>
        <path d="M497.5,326.965C501.018,327.417 501.746,326.716 501.919,328.396C502.054,329.713 503.15,334.941 499.512,334.965C497.508,334.978 495.504,334.962 493.5,334.966C493.052,334.967 488.173,334.976 488.082,336.395C487.74,341.722 488.641,382.349 487.518,383.518C486.468,384.61 478.214,384.601 478.079,381.561C477.755,374.263 478.627,336.637 477.517,335.483C476.523,334.45 464.296,336.169 464.082,333.604C464.037,333.074 463.547,327.198 465.395,327.08C467.21,326.964 492.517,327.136 497.5,326.965Z" style="fill:rgb(0,18,25);"/>
        <path d="M572.551,326.984C579.043,327.446 579.132,327.078 579.52,327.48C580.667,328.672 579.71,370.112 580.081,372.561C580.777,377.155 597.046,374.29 600.604,375.08C602.49,375.5 602.413,382.656 601.516,383.516C599.899,385.07 599.501,384.136 573.488,383.966C570.274,383.945 570.957,382.164 570.96,357.5C570.964,335.301 569.722,335.26 570.314,333.426C571.405,330.046 569.879,329.392 572.551,326.984Z" style="fill:rgb(0,18,25);"/>
        <path d="M177.5,374.965C189.645,375.104 189.581,374.852 190.604,375.08C192.431,375.488 191.962,381.995 191.918,382.604C191.818,383.993 191.099,384.055 168.5,383.965C163.389,383.945 160.987,385.609 161.033,380.5C161.046,379.031 160.997,329.687 161.08,328.395C161.19,326.664 168.568,326.492 169.519,327.481C170.639,328.646 169.748,368.257 170.087,373.602C170.193,375.278 171.013,374.549 177.5,374.965Z" style="fill:rgb(0,18,25);"/>
        <path d="M143.542,326.995C149.822,327.434 150.714,326.513 151.017,328.552C151.136,329.351 150.98,371.744 150.966,375.5C150.951,379.613 153.613,384.686 143.439,383.921C140.35,383.689 141.033,380.773 141.035,359.5C141.038,329.356 140.473,328.36 143.542,326.995Z" style="fill:rgb(0,18,25);"/>
    </g>
</svg>
